<svg xmlns="http://www.w3.org/2000/svg" width="250" height="45.478" version="1.1" viewBox="0 0 250 45.478">
 <g transform="matrix(.16173 0 0 .16173 -31.068 -64.611)">
   <path fill="#FF4389" d="m411.6 540.1h-79v79.1c21.8 0 40.4-7.7 55.9-23.2 15.4-15.4 23.1-34.1 23.1-55.9z"/>
   <path fill="#050708" d="m332.6 399.5v61.5c21.8 0 40.4 7.7 55.9 23.2 15.4 15.4 23.1 34.1 23.1 55.9h61.5c0-38.8-13.7-71.9-41.2-99.4-27.4-27.4-60.5-41.2-99.3-41.2m-79.1 140.6h-61.4c0 38.8 13.7 71.9 41.1 99.4 27.5 27.5 60.6 41.2 99.4 41.2v-61.5h-0.1c-21.8 0-40.5-7.7-55.9-23.2-15.4-15.4-23.1-34.1-23.1-55.9m790.4-48.1h-20.1v96.8h20.1v-96.8m2.1-30.2c0-3.5-1.3-6.4-3.8-8.8-2.3-2.2-5.1-3.4-8.3-3.4s-6 1.1-8.4 3.4c-2.5 2.4-3.8 5.3-3.8 8.8 0 3.4 1.2 6.3 3.8 8.6 2.4 2.3 5.2 3.5 8.4 3.5s6-1.2 8.3-3.5c2.5-2.3 3.8-5.2 3.8-8.6m123.9 78.5c0-14.3-4.5-26.3-13.6-36.1-8.9-9.5-19.5-14.2-31.8-14.2-9.7 0-18.2 2.7-25.4 8-3.3 2.5-5.9 5.2-7.9 8v-14h-20.2v139.2h20.2v-56.4c2 2.9 4.6 5.5 7.9 8 7.3 5.3 15.8 8 25.4 8 12.3 0 22.9-4.7 31.8-14.2 9.1-9.8 13.6-21.8 13.6-36.3m-28.7-22.4c5.7 6 8.5 13.4 8.5 22.4s-2.8 16.6-8.5 22.6c-5.6 5.9-12.5 8.8-20.7 8.8s-15.1-2.9-20.6-8.8c-5.7-6-8.6-13.5-8.6-22.6 0-9 2.9-16.5 8.6-22.4 5.6-5.9 12.4-8.8 20.6-8.8s15 2.9 20.7 8.8m103.2-27.9h-5.1c-8.1 0-15.3 2.5-21.8 7.6-2.3 1.8-4.8 4.3-7.4 7.5v-13.1h-20.2v96.8h20.2v-49.5c0-8.4 2.6-15.4 7.8-21 5.1-5.5 11.2-8.2 18.3-8.2l8.1 1.1v-21.2m-529.8 50.3c0-14.1-4.9-26-14.6-35.7-9.7-9.8-21.6-14.6-35.8-14.6-14.1 0.1-26 4.9-35.9 14.6-9.7 9.7-14.6 21.6-14.6 35.7 0 14.2 4.9 26.1 14.6 35.9 9.8 9.7 21.8 14.5 35.9 14.5s26-4.9 35.8-14.5c9.8-9.7 14.6-21.7 14.6-35.9m-50.3-31.2c8.7 0 15.8 2.9 21.5 8.8 5.8 5.9 8.7 13.4 8.7 22.4 0 9.1-2.9 16.7-8.7 22.6-5.7 5.9-12.9 8.8-21.5 8.8s-15.9-2.9-21.6-8.8c-5.8-5.9-8.6-13.4-8.6-22.6 0-9 2.9-16.5 8.6-22.4s12.9-8.8 21.6-8.8m217.6 22.2c0-12.3-3.5-22.3-10.5-30.1-6.7-7.5-15-11.2-24.8-11.2-10 0-18.6 2.7-25.8 8-3.3 2.7-5.8 5.4-7.5 8-1.9-2.8-4.3-5.5-7.3-8-6.4-5.4-14.1-8-23-8-8.3 0-15.6 2.7-21.8 8-2.8 2.6-5 5.3-6.5 8v-14h-20.2v96.8h20.2v-53.5c0-7.9 2.2-14.3 6.7-19.1 4.3-4.7 9.8-7.1 16.5-7.1 5.8 0 10.6 1.9 14.2 5.7 3.9 4.1 5.8 9.5 5.8 16.5v57.5h20.2v-53.5c0-7.9 2.2-14.3 6.7-19.1 4.3-4.7 9.9-7.1 16.6-7.1 5.8 0 10.6 1.9 14.2 5.7 3.9 4.1 5.9 9.5 5.9 16.5v57.5h20.1v-57.5m46.6-39.3h-20.2v96.8h20.2v-52.3c0-8.1 2.5-14.7 7.5-19.8 4.9-5.1 11.1-7.6 18.7-7.6 6.7 0 12 2.1 16.1 6.2 4.1 4.2 6.2 9.9 6.2 17.1v56.4h20v-56.4c0-13-3.6-23.4-10.8-31.2-7-7.5-16.2-11.3-27.5-11.3-8.5 0-16.1 2.7-22.8 8-2.9 2.4-5.4 5.1-7.5 8v-13.9m784.9 0v-32.3h-18.2v21.2c0 7.4-3 11.1-9.1 11.1h-11.2v19.2h18.2v47.3c0 21.5 10.1 32.2 30.2 32.2 4.2 0 7.9-0.5 10.9-1.3l4.2-1.6v-19.1l-3.2 1.6c-2.6 1-5.2 1.5-7.9 1.5-9.4 0-14-5.1-14-15.2v-45.3h22.1v-19.3h-22m-337.1 6.4c-6.3 5.3-9.5 11.9-9.5 19.8 0 13.1 8.6 22.5 25.7 28.1 4.3 1.4 10.2 3.3 17.8 5.7 5.3 2.3 8 5.2 8 8.5s-1.4 6.2-4.3 8.5c-3.2 2.4-7.4 3.7-12.8 3.7-6 0-12.2-2.1-18.4-6.4-2.5-1.8-4.8-4-6.9-6.7l-13.1 13.1c2.6 3.4 5.9 6.5 9.8 9 8.4 6 17.9 9 28.6 9 11.3 0 20.4-3 27.4-9 6.6-5.7 9.8-12.8 9.8-21.2 0-12.9-8.6-22.2-25.7-28-8.5-2.5-14.4-4.4-17.6-5.7-5.4-2.3-8.1-5.2-8.1-8.7 0-2.7 1.2-5 3.7-6.9 2.8-2.1 6.6-3.1 11.4-3.1 5.6 0 10.8 1.3 15.5 4l5.7 4 13.2-13.1c-2.4-2.6-5.2-4.8-8.5-6.5-7.8-4.5-16.4-6.7-25.8-6.7-10.8 0.2-19.4 3-25.9 8.6m-24.6 39c0-13.7-4.4-25.1-13.3-34-8.9-9-20.3-13.4-34-13.4-13.7 0.1-25.3 4.9-34.9 14.6-9.7 9.8-14.5 21.7-14.5 35.7 0 14.2 4.9 26.1 14.6 35.9 9.8 9.7 21.7 14.5 35.8 14.5 11.6 0 22-3 31.2-9 4.2-2.7 7.6-5.7 10.1-9l-12.1-14.1c-2.2 2.5-4.8 4.7-7.7 6.6-6.4 4.4-13.3 6.5-20.6 6.5-7.8 0-14.6-2.4-20.4-7.2-5.4-4.5-8.7-10.2-9.8-17h74.6l1-10.1m-47.4-29.3c14.1 0 22.8 7.4 26.2 22.1h-54.5c4.6-14.7 14-22.1 28.3-22.1m178.1 56.4c-5.4-4.5-8.7-10.2-9.8-17h74.6l1-10c0-13.7-4.4-25.1-13.3-34-8.9-9-20.3-13.4-34-13.4-13.6 0.1-25.3 4.9-34.9 14.6-9.7 9.8-14.5 21.7-14.5 35.7 0 14.2 4.9 26.1 14.6 35.9 9.8 9.7 21.7 14.5 35.8 14.5 11.6 0 22-3 31.2-9 4.2-2.7 7.6-5.7 10.1-9l-12.1-14.1c-2.2 2.5-4.7 4.7-7.7 6.6-6.4 4.4-13.3 6.5-20.6 6.5-7.9-0.1-14.7-2.5-20.4-7.3m18.4-56.4c14.1 0 22.8 7.4 26.2 22.1h-54.5c4.6-14.7 14-22.1 28.3-22.1m87.6-16.1h-20.2v96.8h20.2v-52.3c0-8.1 2.5-14.7 7.5-19.8 4.9-5.1 11.1-7.6 18.7-7.6 6.7 0 12 2.1 16.1 6.2 4.1 4.2 6.2 9.9 6.2 17.1v56.4h20.1v-56.4c0-13-3.6-23.4-10.8-31.2-7.1-7.5-16.2-11.3-27.5-11.3-8.5 0-16.1 2.7-22.8 8-3 2.4-5.5 5.1-7.5 8z"/>
 </g>
</svg>
